# xmcd CD database file
#
# Track frame offsets:
#	150
#	14287
#	27420
#	40757
#	56265
#	70922
#	85510
#	99497
#	111315
#	128272
#	141115
#
# Disc length: 2100 seconds
#
# Revision: 0
# Processed by: cddbd v1.5.1PL2 Copyright (c) Steve Scherf et al.
# Submitted via: CDex 1.51
#
DISCID=8208320b
DTITLE=Magic - Speed Star
DYEAR=1900
DGENRE=Other
TTITLE0=GOLDEN SUMMER
TTITLE1=TOKYO BURNING TOWN
TTITLE2=傷だらけのパラダイス
TTITLE3=MOTHER
TTITLE4=CROSSROAD
TTITLE5=DANCIN' DANCIN' DANCIN'
TTITLE6=LAST SUMMER
TTITLE7=恋のダイヤモンドリング
TTITLE8=あの頃へ50マイル
TTITLE9=CAFE CHINA MOON
TTITLE10=CRAZY FOR YOUR LOVE
EXTD=
EXTT0=
EXTT1=
EXTT2=
EXTT3=
EXTT4=
EXTT5=
EXTT6=
EXTT7=
EXTT8=
EXTT9=
EXTT10=
PLAYORDER=
